<?xml version="1.0" encoding="UTF-8" standalone="no"?>
<svg
   xmlns:dc="http://purl.org/dc/elements/1.1/"
   xmlns:cc="http://creativecommons.org/ns#"
   xmlns:rdf="http://www.w3.org/1999/02/22-rdf-syntax-ns#"
   xmlns:svg="http://www.w3.org/2000/svg"
   xmlns="http://www.w3.org/2000/svg"
   xmlns:sodipodi="http://sodipodi.sourceforge.net/DTD/sodipodi-0.dtd"
   xmlns:inkscape="http://www.inkscape.org/namespaces/inkscape"
   id="Ebene_1"
   viewBox="0 0 931.89001 215.72999"
   version="1.1"
   sodipodi:docname="logo-dark.svg"
   width="931.89001"
   height="215.73"
   inkscape:version="0.92.5 (2060ec1f9f, 2020-04-08)">
  <metadata
     id="metadata4741">
    <rdf:RDF>
      <cc:Work
         rdf:about="">
        <dc:format>image/svg+xml</dc:format>
        <dc:type
           rdf:resource="http://purl.org/dc/dcmitype/StillImage" />
        <dc:title></dc:title>
      </cc:Work>
    </rdf:RDF>
  </metadata>
  <sodipodi:namedview
     pagecolor="#ffffff"
     bordercolor="#666666"
     borderopacity="1"
     objecttolerance="10"
     gridtolerance="10"
     guidetolerance="10"
     inkscape:pageopacity="0"
     inkscape:pageshadow="2"
     inkscape:window-width="2560"
     inkscape:window-height="1361"
     id="namedview4739"
     showgrid="false"
     fit-margin-top="0"
     fit-margin-left="0"
     fit-margin-right="0"
     fit-margin-bottom="0"
     inkscape:zoom="0.95883679"
     inkscape:cx="209.72139"
     inkscape:cy="-52.162792"
     inkscape:window-x="-9"
     inkscape:window-y="-9"
     inkscape:window-maximized="1"
     inkscape:current-layer="Ebene_1" />
  <defs
     id="defs4720">
    <style
       id="style4694">.cls-1{clip-path:url(#clippath);}.cls-2{fill:none;}.cls-2,.cls-3,.cls-4{stroke-width:0px;}.cls-3{fill:url(#Unbenannter_Verlauf_2);}.cls-4{fill:#fff;}</style>
    <clipPath
       id="clippath">
      <path
         class="cls-2"
         d="m 34.96,253.04 c -0.61,1.24 -0.9,2.52 -0.9,3.77 v 0.05 c 0,2.75 1.36,5.34 3.55,6.93 4.72,4.03 37.14,10.79 76.45,10.79 39.31,0 71.93,-6.78 76.5,-10.83 3.15,-2.35 4.55,-6.76 2.59,-10.72 L 161.91,184 c -8.04,2.89 -26.44,4.91 -47.86,4.91 -21.42,0 -39.84,-2.02 -47.87,-4.92 L 34.97,253.02 Z M 83.4,75.38 c -3.87,0 -7.01,3.14 -7.01,7.01 0,3.87 3.14,7.01 7.01,7.01 h 2.79 v 41.95 c 0,6.04 -1.39,11.99 -4.07,17.39 l -12.54,27.75 c 9.19,-2.34 25.66,-3.9 44.47,-3.9 18.81,0 35.25,1.56 44.44,3.89 l -13.06,-28.86 c -2.68,-5.41 -4.07,-11.36 -4.07,-17.4 V 89.39 h 3.35 c 3.87,0 7.01,-3.14 7.01,-7.01 0,-3.87 -3.14,-7.01 -7.01,-7.01 h -61.3 z"
         id="path4696"
         inkscape:connector-curvature="0"
         style="fill:none;stroke-width:0px" />
    </clipPath>
    <linearGradient
       id="Unbenannter_Verlauf_2"
       x1="-1799.83"
       y1="-5455.7202"
       x2="-1797.59"
       y2="-5455.7202"
       gradientTransform="matrix(0,-88.94,-88.94,0,-485115.41,-159801.54)"
       gradientUnits="userSpaceOnUse">
      <stop
         offset="0"
         stop-color="#8754f1"
         id="stop4699" />
      <stop
         offset=".03"
         stop-color="#8754f1"
         id="stop4701" />
      <stop
         offset=".19"
         stop-color="#9853d7"
         id="stop4703" />
      <stop
         offset=".5"
         stop-color="#c053a0"
         id="stop4705" />
      <stop
         offset=".56"
         stop-color="#c9618c"
         id="stop4707" />
      <stop
         offset=".67"
         stop-color="#d8796c"
         id="stop4709" />
      <stop
         offset=".78"
         stop-color="#e48a55"
         id="stop4711" />
      <stop
         offset=".88"
         stop-color="#ea9447"
         id="stop4713" />
      <stop
         offset=".97"
         stop-color="#ed9843"
         id="stop4715" />
      <stop
         offset="1"
         stop-color="#ed9843"
         id="stop4717" />
    </linearGradient>
  </defs>
  <g
     class="cls-1"
     clip-path="url(#clippath)"
     id="g4724"
     transform="translate(-34.060001,-75.379997)">
    <rect
       class="cls-3"
       x="34.060001"
       y="75.379997"
       width="161.03999"
       height="199.21001"
       id="rect4722"
       style="fill:url(#Unbenannter_Verlauf_2);stroke-width:0px" />
  </g>
  <path
     class="cls-4"
     d="M 310.85,56.480003 V 168.72 h -27.22 v -19.35 c -6.52,11.47 -21.37,22.04 -40.94,22.04 -33.29,0 -56.68,-26.54 -56.68,-58.71 0,-32.169997 23.39,-58.929997 56.68,-58.929997 19.57,0 34.86,10.12 40.49,22.04 v -19.34 h 27.67 z M 248.09,148.02 c 18.67,0 34.41,-13.72 34.41,-35.31 0,-21.589997 -15.74,-35.539997 -34.41,-35.539997 -20.24,0 -33.74,15.97 -33.74,35.539997 0,19.57 13.5,35.31 33.74,35.31 z"
     id="path4726"
     inkscape:connector-curvature="0"
     style="fill:#ffffff;stroke-width:0px" />
  <path
     class="cls-4"
     d="m 344.59,22.970003 h 28.34 v 33.51 h 29.02 v 23.39 H 372.93 V 130.93 c 0,11.7 4.5,16.87 15.52,16.87 4.72,0 8.55,-0.9 12.37,-2.02 v 22.72 c -3.6,1.35 -12.6,2.93 -19.79,2.93 -26.54,0 -36.44,-15.97 -36.44,-41.84 V 79.880003 h -20.92 v -23.39 h 20.92 v -33.51 z"
     id="path4728"
     inkscape:connector-curvature="0"
     style="fill:#ffffff;stroke-width:0px" />
  <path
     class="cls-4"
     d="m 411.17,112.71 c 0,-30.589997 22.94,-58.929997 61.63,-58.929997 38.69,0 61.63,28.34 61.63,58.929997 0,30.59 -22.94,58.71 -61.63,58.71 -38.69,0 -61.63,-28.34 -61.63,-58.71 z m 27.67,0 c 0,18.22 12.15,35.09 33.96,35.09 21.81,0 33.96,-16.87 33.96,-35.09 0,-18.219997 -12.15,-35.309997 -33.96,-35.309997 -21.81,0 -33.96,17.09 -33.96,35.309997 z"
     id="path4730"
     inkscape:connector-curvature="0"
     style="fill:#ffffff;stroke-width:0px" />
  <path
     class="cls-4"
     d="M 581.22,168.72 H 552.88 V 56.480003 h 27.44 v 19.12 c 5.17,-13.04 18.89,-21.82 36.44,-21.82 17.55,0 29.46,8.32 35.76,21.82 8.55,-13.95 22.49,-21.82 40.71,-21.82 26.99,0 40.94,19.79 40.94,47.679997 v 67.25 h -28.34 v -62.53 c 0,-15.969997 -6.07,-27.669997 -22.94,-27.669997 -15.29,0 -25.19,10.8 -25.19,26.319997 v 63.88 h -28.34 v -62.53 c 0,-15.969997 -6.07,-27.669997 -22.94,-27.669997 -15.52,0 -25.19,11.25 -25.19,27.439997 v 62.76 z"
     id="path4732"
     inkscape:connector-curvature="0"
     style="fill:#ffffff;stroke-width:0px" />
  <path
     class="cls-4"
     d="m 773.54,4.3000027 c 9.67,0 16.87,7.4200003 16.87,16.6400003 0,9.22 -7.2,16.65 -16.87,16.65 -9.67,0 -16.87,-7.2 -16.87,-16.65 0,-9.45 7.42,-16.6400003 16.87,-16.6400003 z M 759.37,168.72 V 56.480003 h 28.34 V 168.72 Z"
     id="path4734"
     inkscape:connector-curvature="0"
     style="fill:#ffffff;stroke-width:0px" />
  <path
     class="cls-4"
     d="m 903.54,215.73 v -66.35 c -5.62,12.15 -20.24,22.04 -39.81,22.04 -33.29,0 -56.68,-26.54 -56.68,-58.71 0,-32.169997 23.39,-58.929997 56.68,-58.929997 19.57,0 34.41,10.57 40.94,22.04 v -19.34 h 27.22 V 215.73 h -28.34 z m -34.41,-67.71 c 18.67,0 34.41,-13.72 34.41,-35.31 0,-21.589997 -15.74,-35.539997 -34.41,-35.539997 -20.24,0 -33.74,15.97 -33.74,35.539997 0,19.57 13.5,35.31 33.74,35.31 z"
     id="path4736"
     inkscape:connector-curvature="0"
     style="fill:#ffffff;stroke-width:0px" />
</svg>
