<?xml version="1.0" encoding="UTF-8" standalone="no"?>
<!-- Generator: Adobe Illustrator 28.1.0, SVG Export Plug-In . SVG Version: 6.00 Build 0)  -->

<svg
   xmlns:dc="http://purl.org/dc/elements/1.1/"
   xmlns:cc="http://creativecommons.org/ns#"
   xmlns:rdf="http://www.w3.org/1999/02/22-rdf-syntax-ns#"
   xmlns:svg="http://www.w3.org/2000/svg"
   xmlns="http://www.w3.org/2000/svg"
   xmlns:xlink="http://www.w3.org/1999/xlink"
   xmlns:sodipodi="http://sodipodi.sourceforge.net/DTD/sodipodi-0.dtd"
   xmlns:inkscape="http://www.inkscape.org/namespaces/inkscape"
   version="1.1"
   id="Ebene_1"
   x="0px"
   y="0px"
   viewBox="0 0 931.79999 215.7"
   xml:space="preserve"
   sodipodi:docname="logo-light.svg"
   width="931.79999"
   height="215.7"
   inkscape:version="0.92.5 (2060ec1f9f, 2020-04-08)"><metadata
   id="metadata5392"><rdf:RDF><cc:Work
       rdf:about=""><dc:format>image/svg+xml</dc:format><dc:type
         rdf:resource="http://purl.org/dc/dcmitype/StillImage" /><dc:title></dc:title></cc:Work></rdf:RDF></metadata><defs
   id="defs5390" /><sodipodi:namedview
   pagecolor="#ffffff"
   bordercolor="#666666"
   borderopacity="1"
   objecttolerance="10"
   gridtolerance="10"
   guidetolerance="10"
   inkscape:pageopacity="0"
   inkscape:pageshadow="2"
   inkscape:window-width="2560"
   inkscape:window-height="1361"
   id="namedview5388"
   showgrid="false"
   fit-margin-top="0"
   fit-margin-left="0"
   fit-margin-right="0"
   fit-margin-bottom="0"
   inkscape:zoom="0.678"
   inkscape:cx="231.2251"
   inkscape:cy="-29.794479"
   inkscape:window-x="-9"
   inkscape:window-y="-9"
   inkscape:window-maximized="1"
   inkscape:current-layer="Ebene_1" />
<style
   type="text/css"
   id="style5340">
	.st0{clip-path:url(#SVGID_00000151531858931495839830000005884923575073903802_);}
	.st1{fill:url(#SVGID_00000013873497740049700100000017886184126123200658_);}
	.st2{fill:#141414;}
</style>
<g
   id="g5373"
   transform="translate(-34.1,-75.400002)">
	<defs
   id="defs5343">
		<path
   id="SVGID_1_"
   d="m 35,253 c -0.6,1.2 -0.9,2.5 -0.9,3.8 v 0 c 0,2.8 1.4,5.3 3.5,6.9 4.7,4 37.1,10.8 76.4,10.8 39.3,0 71.9,-6.8 76.5,-10.8 3.1,-2.4 4.6,-6.8 2.6,-10.7 l -31.2,-69 c -8,2.9 -26.4,4.9 -47.9,4.9 -21.5,0 -39.8,-2 -47.9,-4.9 z M 83.4,75.4 c -3.9,0 -7,3.1 -7,7 0,3.9 3.1,7 7,7 h 2.8 v 42 c 0,6 -1.4,12 -4.1,17.4 l -12.5,27.8 c 9.2,-2.3 25.7,-3.9 44.5,-3.9 18.8,0 35.2,1.6 44.4,3.9 l -13.1,-28.9 c -2.7,-5.4 -4.1,-11.4 -4.1,-17.4 V 89.4 h 3.4 c 3.9,0 7,-3.1 7,-7 0,-3.9 -3.1,-7 -7,-7 z"
   inkscape:connector-curvature="0" />
	</defs>
	<clipPath
   id="SVGID_00000030488539567060556620000005233802579819170206_">
		<use
   xlink:href="#SVGID_1_"
   style="overflow:visible"
   id="use5345"
   x="0"
   y="0"
   width="100%"
   height="100%" />
	</clipPath>
	<g
   clip-path="url(#SVGID_00000030488539567060556620000005233802579819170206_)"
   id="g5371">
		
			<linearGradient
   id="SVGID_00000142858985114026013720000007392610860822478261_"
   gradientUnits="userSpaceOnUse"
   x1="-51.3209"
   y1="5769.0449"
   x2="-49.0811"
   y2="5769.0449"
   gradientTransform="matrix(0,-88.94,88.94,0,-512984.31,-4289.8896)">
			<stop
   offset="0"
   style="stop-color:#8754F1"
   id="stop5348" />
			<stop
   offset="3.000000e-02"
   style="stop-color:#8754F1"
   id="stop5350" />
			<stop
   offset="0.19"
   style="stop-color:#9853D7"
   id="stop5352" />
			<stop
   offset="0.5"
   style="stop-color:#C053A0"
   id="stop5354" />
			<stop
   offset="0.56"
   style="stop-color:#C9618C"
   id="stop5356" />
			<stop
   offset="0.67"
   style="stop-color:#D8796C"
   id="stop5358" />
			<stop
   offset="0.78"
   style="stop-color:#E48A55"
   id="stop5360" />
			<stop
   offset="0.88"
   style="stop-color:#EA9447"
   id="stop5362" />
			<stop
   offset="0.97"
   style="stop-color:#ED9843"
   id="stop5364" />
			<stop
   offset="1"
   style="stop-color:#ED9843"
   id="stop5366" />
		</linearGradient>
		
			<rect
   x="34.099998"
   y="75.400002"
   style="fill:url(#SVGID_00000142858985114026013720000007392610860822478261_)"
   width="161"
   height="199.2"
   id="rect5369" />
	</g>
</g>
<path
   class="st2"
   d="M 310.8,56.499998 V 168.7 h -27.2 v -19.4 c -6.5,11.5 -21.4,22 -40.9,22 -33.3,0 -56.7,-26.5 -56.7,-58.7 0,-32.200002 23.4,-58.900002 56.7,-58.900002 19.6,0 34.9,10.1 40.5,22 v -19.3 z M 248,148 c 18.7,0 34.4,-13.7 34.4,-35.3 0,-21.600002 -15.7,-35.500002 -34.4,-35.500002 -20.2,0 -33.7,16 -33.7,35.500002 0,19.5 13.5,35.3 33.7,35.3 z"
   id="path5375"
   inkscape:connector-curvature="0"
   style="fill:#141414" />
<path
   class="st2"
   d="m 344.5,22.899998 h 28.4 v 33.5 h 29 v 23.4 h -29 V 130.9 c 0,11.7 4.5,16.9 15.5,16.9 4.7,0 8.5,-0.9 12.4,-2 v 22.7 c -3.6,1.4 -12.6,2.9 -19.8,2.9 -26.5,0 -36.4,-16 -36.4,-41.8 V 79.899998 h -20.9 v -23.4 h 20.9 z"
   id="path5377"
   inkscape:connector-curvature="0"
   style="fill:#141414" />
<path
   class="st2"
   d="m 411.1,112.7 c 0,-30.600002 22.9,-58.900002 61.6,-58.900002 38.7,0 61.6,28.3 61.6,58.900002 0,30.6 -22.9,58.7 -61.6,58.7 -38.7,0 -61.6,-28.3 -61.6,-58.7 z m 27.7,0 c 0,18.2 12.1,35.1 34,35.1 21.9,0 34,-16.9 34,-35.1 0,-18.200002 -12.2,-35.300002 -34,-35.300002 -21.8,0 -34,17.1 -34,35.300002 z"
   id="path5379"
   inkscape:connector-curvature="0"
   style="fill:#141414" />
<path
   class="st2"
   d="M 581.2,168.7 H 552.9 V 56.499998 h 27.4 v 19.1 c 5.2,-13 18.9,-21.8 36.4,-21.8 17.5,0 29.5,8.3 35.8,21.8 8.5,-13.9 22.5,-21.8 40.7,-21.8 27,0 40.9,19.8 40.9,47.700002 v 67.2 h -28.3 v -62.5 c 0,-16.000002 -6.1,-27.700002 -22.9,-27.700002 -15.3,0 -25.2,10.8 -25.2,26.300002 v 63.9 h -28.3 v -62.5 c 0,-16.000002 -6.1,-27.700002 -22.9,-27.700002 -15.5,0 -25.2,11.2 -25.2,27.400002 z"
   id="path5381"
   inkscape:connector-curvature="0"
   style="fill:#141414" />
<path
   class="st2"
   d="m 773.5,4.2999985 c 9.7,0 16.9,7.3999995 16.9,16.5999995 0,9.2 -7.2,16.7 -16.9,16.7 -9.7,0 -16.9,-7.2 -16.9,-16.7 0,-9.5 7.4,-16.5999995 16.9,-16.5999995 z M 759.3,168.7 V 56.499998 h 28.3 V 168.7 Z"
   id="path5383"
   inkscape:connector-curvature="0"
   style="fill:#141414" />
<path
   class="st2"
   d="m 903.5,215.7 v -66.4 c -5.6,12.1 -20.2,22 -39.8,22 -33.3,0 -56.7,-26.5 -56.7,-58.7 0,-32.200002 23.4,-58.900002 56.7,-58.900002 19.6,0 34.4,10.6 40.9,22 v -19.3 h 27.2 V 215.6 Z M 869.1,148 c 18.7,0 34.4,-13.7 34.4,-35.3 0,-21.600002 -15.7,-35.500002 -34.4,-35.500002 -20.2,0 -33.7,16 -33.7,35.500002 0,19.5 13.5,35.3 33.7,35.3 z"
   id="path5385"
   inkscape:connector-curvature="0"
   style="fill:#141414" />
</svg>